<svg xmlns="http://www.w3.org/2000/svg" xmlns:xlink="http://www.w3.org/1999/xlink" width="500" zoomAndPan="magnify" viewBox="0 0 375 374.999991" height="500" preserveAspectRatio="xMidYMid meet" version="1.0"><defs><clipPath id="cbf62f39ce"><path d="M 41 80.941406 L 229.421875 80.941406 L 229.421875 294 L 41 294 Z M 41 80.941406 " clip-rule="nonzero"/></clipPath><clipPath id="6e2f08b9a5"><path d="M 215.75 128.167969 L 334 128.167969 L 334 246.433594 L 215.75 246.433594 Z M 215.75 128.167969 " clip-rule="nonzero"/></clipPath></defs><g clip-path="url(#cbf62f39ce)"><path fill="#08bbee" d="M 122.320312 280.246094 C 122.308594 280.433594 122.261719 280.617188 122.261719 280.8125 C 122.261719 288.074219 128.171875 293.984375 135.441406 293.984375 C 142.707031 293.984375 148.613281 288.074219 148.613281 280.8125 C 148.613281 278.605469 148.019531 276.5625 147.058594 274.734375 L 205.207031 241.179688 C 207.550781 244.859375 211.636719 247.320312 216.3125 247.320312 C 223.574219 247.320312 229.488281 241.410156 229.488281 234.148438 C 229.488281 229.082031 226.578125 224.726562 222.378906 222.523438 L 222.378906 152.40625 C 226.578125 150.203125 229.488281 145.847656 229.488281 140.78125 C 229.488281 133.519531 223.574219 127.605469 216.3125 127.605469 C 211.625 127.605469 207.53125 130.085938 205.191406 133.78125 L 147.042969 100.226562 C 148.011719 98.390625 148.613281 96.332031 148.613281 94.117188 C 148.613281 86.855469 142.703125 80.941406 135.441406 80.941406 C 128.175781 80.941406 122.261719 86.851562 122.261719 94.117188 C 122.261719 94.3125 122.308594 94.492188 122.320312 94.6875 L 61.636719 129.699219 C 59.589844 128.390625 57.171875 127.605469 54.566406 127.605469 C 47.300781 127.605469 41.390625 133.515625 41.390625 140.78125 C 41.390625 145.847656 44.296875 150.203125 48.503906 152.40625 L 48.503906 222.523438 C 44.296875 224.726562 41.390625 229.082031 41.390625 234.148438 C 41.390625 241.410156 47.300781 247.320312 54.566406 247.320312 C 57.171875 247.320312 59.585938 246.539062 61.632812 245.226562 Z M 128.371094 105.195312 C 130.28125 106.417969 132.523438 107.144531 134.933594 107.238281 L 134.933594 139.917969 L 101.578125 120.660156 L 128.375 105.195312 Z M 101.609375 254.289062 L 134.933594 235.050781 L 134.933594 267.683594 C 132.523438 267.777344 130.28125 268.507812 128.371094 269.726562 Z M 95.507812 250.769531 L 95.507812 211.710938 L 134.429688 234.179688 L 100.601562 253.710938 L 95.507812 250.773438 Z M 60.632812 184.570312 L 94.5 165.019531 L 94.5 209.957031 L 60.632812 190.40625 Z M 123.847656 193.59375 L 95.507812 209.957031 L 95.507812 165.007812 L 123.832031 181.367188 C 122.863281 183.199219 122.261719 185.253906 122.261719 187.464844 C 122.261719 189.6875 122.867188 191.753906 123.847656 193.59375 Z M 124.332031 194.484375 C 126.585938 198.035156 130.46875 200.410156 134.933594 200.585938 L 134.933594 233.296875 L 96.023438 210.832031 L 124.335938 194.484375 Z M 148.554688 186.898438 L 175.367188 171.417969 L 175.367188 209.960938 L 147.023438 193.59375 C 148.003906 191.753906 148.609375 189.6875 148.609375 187.464844 C 148.609375 187.269531 148.5625 187.085938 148.554688 186.898438 Z M 124.3125 180.476562 L 96.019531 164.136719 L 134.929688 141.671875 L 134.929688 174.34375 C 130.453125 174.515625 126.558594 176.910156 124.3125 180.476562 Z M 67.683594 140.214844 L 94.5 124.742188 L 94.5 163.253906 L 66.164062 146.894531 C 67.140625 145.058594 67.742188 142.996094 67.742188 140.78125 C 67.742188 140.585938 67.691406 140.410156 67.683594 140.214844 Z M 65.679688 147.785156 L 93.992188 164.136719 L 60.628906 183.398438 L 60.628906 152.40625 C 62.691406 151.324219 64.4375 149.746094 65.679688 147.785156 Z M 93.996094 210.832031 L 65.699219 227.171875 C 64.457031 225.199219 62.707031 223.605469 60.632812 222.519531 L 60.632812 191.566406 Z M 66.179688 228.066406 L 94.496094 211.714844 L 94.496094 250.1875 L 67.679688 234.71875 C 67.6875 234.523438 67.738281 234.34375 67.738281 234.152344 C 67.738281 231.949219 67.140625 229.898438 66.179688 228.070312 Z M 135.945312 200.585938 C 140.410156 200.410156 144.296875 198.03125 146.546875 194.484375 L 174.859375 210.835938 L 135.949219 233.300781 L 135.949219 200.589844 Z M 176.382812 170.832031 L 181.421875 167.925781 L 210.246094 184.570312 L 210.246094 190.402344 L 176.382812 209.953125 Z M 209.25 151.863281 C 209.566406 152.066406 209.910156 152.230469 210.246094 152.40625 L 210.246094 183.398438 L 182.433594 167.34375 Z M 142.503906 176.382812 C 140.589844 175.164062 138.351562 174.433594 135.941406 174.34375 L 135.941406 141.671875 L 169.289062 160.921875 Z M 134.425781 140.792969 L 95.503906 163.261719 L 95.503906 124.160156 L 100.558594 121.246094 L 134.421875 140.796875 Z M 175.371094 211.707031 L 175.371094 256.644531 L 136.449219 234.175781 Z M 210.246094 191.570312 L 210.246094 222.523438 C 208.171875 223.609375 206.421875 225.199219 205.179688 227.171875 L 176.882812 210.832031 L 210.246094 191.566406 Z M 170.300781 160.339844 L 136.445312 140.796875 L 175.367188 118.324219 L 175.367188 157.414062 Z M 135.945312 267.6875 L 135.945312 235.054688 L 174.859375 257.519531 L 146.570312 273.84375 C 144.324219 270.265625 140.425781 267.863281 135.941406 267.6875 Z M 176.382812 256.640625 L 176.382812 211.710938 L 204.695312 228.0625 C 203.734375 229.890625 203.132812 231.941406 203.132812 234.144531 C 203.132812 236.371094 203.746094 238.441406 204.722656 240.285156 L 176.378906 256.640625 Z M 203.191406 141.351562 L 176.378906 156.828125 L 176.378906 118.324219 L 204.703125 134.671875 C 203.734375 136.507812 203.128906 138.5625 203.128906 140.78125 C 203.128906 140.972656 203.179688 141.160156 203.1875 141.351562 Z M 174.859375 117.449219 L 135.945312 139.917969 L 135.945312 107.238281 C 140.417969 107.066406 144.308594 104.675781 146.554688 101.117188 Z M 174.859375 117.449219 " fill-opacity="1" fill-rule="nonzero"/></g><g clip-path="url(#6e2f08b9a5)"><path fill="#08bbee" d="M 279.332031 217.835938 L 274.253906 217.835938 C 270.476562 217.835938 270.476562 212.140625 274.253906 212.140625 L 279.273438 212.140625 C 283.050781 212.140625 283.050781 217.835938 279.332031 217.835938 Z M 281.378906 246.199219 L 220.5625 246.199219 C 217.777344 246.199219 215.484375 243.910156 215.484375 241.121094 L 215.484375 228.488281 C 215.484375 227.1875 215.917969 226.136719 216.722656 225.144531 L 272.769531 159.8125 C 275.617188 156.527344 273.265625 151.390625 268.929688 151.390625 L 220.5625 151.390625 C 217.777344 151.390625 215.484375 149.097656 215.484375 146.3125 L 215.484375 133.863281 C 215.484375 131.078125 217.777344 128.785156 220.5625 128.785156 L 300.699219 128.785156 C 300.203125 130.582031 301.566406 132.253906 302.867188 132.378906 L 313.519531 132.378906 C 317.171875 132.378906 317.542969 138.074219 313.269531 138.074219 L 287.632812 138.074219 C 283.855469 138.074219 283.855469 143.773438 287.632812 143.773438 L 320.453125 143.710938 C 324.230469 143.710938 324.230469 149.40625 320.453125 149.40625 C 315.253906 149.40625 310.050781 149.40625 304.847656 149.40625 C 301.070312 149.40625 301.070312 155.105469 304.847656 155.105469 L 312.652344 155.105469 C 316.429688 155.105469 316.429688 160.800781 312.652344 160.800781 L 297.167969 160.800781 C 293.703125 160.800781 292.894531 166.5 297.726562 166.5 L 304.414062 166.5 C 308.191406 166.5 308.191406 172.195312 304.414062 172.195312 L 276.609375 172.195312 C 272.832031 172.195312 272.832031 177.894531 276.609375 177.894531 L 295.746094 177.894531 C 299.523438 177.894531 299.523438 183.589844 295.746094 183.589844 C 289.738281 183.589844 283.792969 183.589844 277.785156 183.589844 C 274.132812 183.589844 273.761719 189.289062 278.035156 189.289062 L 282.925781 189.289062 C 286.703125 189.289062 286.703125 194.984375 282.925781 194.984375 C 273.078125 194.984375 263.234375 194.984375 253.324219 194.984375 C 249.546875 194.984375 249.546875 200.683594 253.324219 200.683594 L 281.378906 200.683594 C 285.15625 200.683594 285.15625 206.382812 281.378906 206.382812 L 257.660156 206.382812 C 253.882812 206.382812 253.882812 212.078125 257.660156 212.078125 C 260.445312 212.078125 263.234375 212.078125 266.019531 212.078125 C 269.796875 212.078125 269.796875 217.777344 266.019531 217.777344 L 248.058594 217.777344 C 244.28125 217.777344 244.28125 223.472656 248.058594 223.472656 L 308.128906 223.535156 C 311.90625 223.535156 311.90625 229.234375 308.128906 229.234375 C 302.742188 229.234375 304.722656 229.234375 299.335938 229.234375 C 295.433594 229.234375 295.621094 235.300781 299.707031 234.929688 L 305.34375 234.867188 C 308.996094 234.867188 309.183594 240.253906 305.589844 240.566406 C 295.929688 240.566406 291.96875 240.566406 282.304688 240.566406 C 285.339844 241.742188 284.535156 246.199219 281.378906 246.199219 Z M 330.238281 138.011719 L 320.332031 138.011719 C 316.550781 138.011719 316.550781 132.316406 320.332031 132.316406 L 330.238281 132.316406 C 334.015625 132.316406 334.015625 138.011719 330.238281 138.011719 Z M 324.355469 183.589844 C 322.496094 183.589844 318.96875 184.023438 318.96875 180.742188 C 318.96875 177.460938 322.558594 177.894531 324.355469 177.894531 C 328.132812 177.894531 328.132812 183.589844 324.355469 183.589844 Z M 322.746094 160.800781 C 320.886719 160.800781 317.359375 161.234375 317.359375 157.953125 C 317.359375 154.671875 320.949219 155.105469 322.746094 155.105469 C 326.523438 155.105469 326.523438 160.800781 322.746094 160.800781 Z M 313.828125 183.589844 L 303.917969 183.589844 C 300.140625 183.589844 300.140625 177.894531 303.917969 177.894531 L 313.828125 177.894531 C 317.605469 177.894531 317.605469 183.589844 313.828125 183.589844 Z M 292.089844 206.441406 C 290.234375 206.441406 286.703125 206.875 286.703125 203.59375 C 286.703125 200.3125 290.296875 200.746094 292.089844 200.746094 C 295.867188 200.746094 295.867188 206.441406 292.089844 206.441406 Z M 316.984375 240.6875 C 314.507812 240.6875 310.484375 241.308594 310.484375 237.839844 C 310.484375 234.371094 314.507812 234.992188 316.984375 234.992188 C 320.765625 234.929688 320.765625 240.6875 316.984375 240.6875 Z M 316.984375 240.6875 " fill-opacity="1" fill-rule="nonzero"/></g></svg>